<svg width="512" height="512" viewBox="0 0 512 512" fill="none" xmlns="http://www.w3.org/2000/svg">
<path d="M368 415.86V72C367.982 65.6405 365.447 59.5467 360.95 55.0498C356.453 50.553 350.36 48.0185 344 48H72C65.6405 48.0185 59.5467 50.553 55.0498 55.0498C50.553 59.5467 48.0185 65.6405 48 72V424C48.0317 434.599 52.2561 444.755 59.7507 452.249C67.2453 459.744 77.4011 463.968 88 464H416" stroke="black" stroke-width="32" stroke-linejoin="round"/>
<path d="M416 464C403.27 464 391.061 458.943 382.059 449.941C373.057 440.939 368 428.73 368 416V128H440C446.365 128 452.47 130.529 456.971 135.029C461.471 139.53 464 145.635 464 152V416C464 428.73 458.943 440.939 449.941 449.941C440.939 458.943 428.73 464 416 464Z" stroke="black" stroke-width="32" stroke-linejoin="round"/>
<path d="M240 128H304" stroke="black" stroke-width="32" stroke-linecap="round" stroke-linejoin="round"/>
<path d="M240 192H304" stroke="black" stroke-width="32" stroke-linecap="round" stroke-linejoin="round"/>
<path d="M112 256H304" stroke="black" stroke-width="32" stroke-linecap="round" stroke-linejoin="round"/>
<path d="M112 320H304" stroke="black" stroke-width="32" stroke-linecap="round" stroke-linejoin="round"/>
<path d="M112 384H304" stroke="black" stroke-width="32" stroke-linecap="round" stroke-linejoin="round"/>
<path d="M176 208H112C107.757 208 103.687 206.314 100.686 203.314C97.6857 200.313 96 196.243 96 192V128C96 123.757 97.6857 119.687 100.686 116.686C103.687 113.686 107.757 112 112 112H176C180.243 112 184.313 113.686 187.314 116.686C190.314 119.687 192 123.757 192 128V192C192 196.243 190.314 200.313 187.314 203.314C184.313 206.314 180.243 208 176 208Z" fill="black"/>
</svg>
